<svg width="16" height="16" viewBox="0 0 16 16" fill="none" xmlns="http://www.w3.org/2000/svg">
<rect x="0.854797" y="0.558838" width="15" height="15" rx="6" fill="#E8EFEE"/>
<path d="M11.064 12.129C10.8997 12.129 10.7505 12.105 10.6208 12.0582C10.4919 12.0122 10.3684 11.9367 10.2545 11.8348C10.1399 11.7325 10.0305 11.6102 9.9309 11.4708C9.82934 11.3286 9.72779 11.1839 9.62964 11.0406L8.28399 8.97767H6.00544V11.093C6.00544 11.436 5.92594 11.6971 5.76939 11.8702C5.61121 12.0441 5.41396 12.1287 5.16661 12.1287C4.91055 12.1287 4.71166 12.0432 4.55824 11.8674C4.4051 11.6928 4.3275 11.4321 4.3275 11.093V8.97767H3.02338C2.68223 8.97767 2.40466 8.7001 2.40466 8.35896C2.40466 8.01782 2.68223 7.74025 3.02338 7.74025H4.3275V6.68428H3.02338C2.68223 6.68442 2.40466 6.40685 2.40466 6.06584C2.40466 5.72484 2.68223 5.44713 3.02338 5.44713H4.3275V3.90532C4.3275 3.60733 4.3599 3.37319 4.42375 3.2097C4.50352 3.02047 4.62903 2.87427 4.80954 2.75747C4.99005 2.6404 5.17968 2.5835 5.38918 2.5835C5.55104 2.5835 5.69153 2.60991 5.80588 2.66232C5.92336 2.71595 6.02287 2.78565 6.11027 2.87536C6.19929 2.96643 6.29132 3.08595 6.38416 3.23011C6.47959 3.3785 6.57801 3.533 6.68242 3.69799L7.83844 5.44713H10.3903V3.61945C10.3903 3.27177 10.4648 3.00904 10.6115 2.8382C10.7588 2.66681 10.9527 2.5835 11.204 2.5835C11.4637 2.5835 11.6629 2.66694 11.8124 2.8386C11.9611 3.00931 12.0364 3.27218 12.0364 3.61945V5.44713H13.3559C13.6971 5.44713 13.9746 5.7247 13.9746 6.06584C13.9746 6.40699 13.6971 6.68442 13.3559 6.68442H12.0364V7.74052H13.3559C13.6971 7.74052 13.9746 8.01795 13.9746 8.35923C13.9746 8.70037 13.6971 8.97767 13.3559 8.97767H12.0364V10.9471C12.0364 11.7423 11.7184 12.129 11.064 12.129ZM5.80125 8.56928H8.39467C8.46355 8.56928 8.52794 8.60413 8.56565 8.66185L9.96942 10.8139C10.0631 10.9514 10.1635 11.0937 10.2631 11.2333C10.3453 11.3478 10.434 11.4478 10.5269 11.5305C10.6016 11.5975 10.6795 11.6457 10.7592 11.6741C10.8449 11.7053 10.9472 11.7208 11.0642 11.7208C11.302 11.7208 11.6282 11.7208 11.6282 10.9472V8.77348C11.6282 8.66076 11.7198 8.56928 11.8324 8.56928H13.3561C13.4722 8.56928 13.5664 8.47494 13.5664 8.35896C13.5664 8.24298 13.4722 8.14864 13.3561 8.14864H11.8322C11.7195 8.14864 11.628 8.05716 11.628 7.94444V6.48022C11.628 6.36751 11.7195 6.27603 11.8322 6.27603H13.3559C13.4719 6.27603 13.5663 6.18183 13.5663 6.06584C13.5663 5.94986 13.4719 5.85552 13.3559 5.85552H11.8322C11.7195 5.85552 11.628 5.76404 11.628 5.65133V3.61945C11.628 3.31315 11.5608 3.17158 11.5042 3.10664C11.4547 3.04974 11.3805 2.99175 11.204 2.99175C11.0718 2.99175 10.99 3.02429 10.9214 3.10419C10.8657 3.1694 10.799 3.31152 10.799 3.61931V5.65119C10.799 5.76391 10.7075 5.85539 10.5948 5.85539H7.72858C7.65997 5.85539 7.59585 5.82095 7.55815 5.76377L6.33964 3.91989C6.23333 3.75245 6.13545 3.59876 6.04057 3.45119C5.9627 3.3299 5.88769 3.23216 5.81772 3.16055C5.76613 3.10733 5.70691 3.06608 5.63612 3.03368C5.57636 3.00632 5.49074 2.99175 5.38918 2.99175C5.25918 2.99175 5.14565 3.02619 5.03157 3.10011C4.92049 3.17212 4.84752 3.25584 4.80205 3.36339C4.77864 3.42328 4.73589 3.58147 4.73589 3.90532V5.65119C4.73589 5.76391 4.64441 5.85539 4.5317 5.85539H3.02338C2.90739 5.85552 2.81305 5.94986 2.81305 6.06584C2.81305 6.18183 2.90739 6.27603 3.02338 6.27603H4.5317C4.64441 6.27603 4.73589 6.36751 4.73589 6.48022V7.94458C4.73589 8.05729 4.64441 8.14877 4.5317 8.14877H3.02338C2.90739 8.14864 2.81305 8.24311 2.81305 8.35896C2.81305 8.4748 2.90739 8.56928 3.02338 8.56928H4.5317C4.64441 8.56928 4.73589 8.66076 4.73589 8.77348V11.093C4.73589 11.327 4.78082 11.5019 4.86563 11.5987C4.94009 11.6841 5.02994 11.7206 5.16661 11.7206C5.2977 11.7206 5.38728 11.6834 5.46678 11.5957C5.55186 11.5021 5.59705 11.3281 5.59705 11.0934V8.77348C5.59705 8.66076 5.68853 8.56928 5.80125 8.56928ZM10.5945 10.1925C10.5273 10.1925 10.4626 10.159 10.4241 10.1007L9.62147 8.88592C9.58022 8.82316 9.57655 8.74271 9.61235 8.67669C9.64802 8.61053 9.71731 8.56928 9.79191 8.56928H10.5945C10.7072 8.56928 10.7987 8.66076 10.7987 8.77348V9.9883C10.7987 10.0784 10.7394 10.1579 10.6533 10.1839C10.6339 10.1896 10.614 10.1925 10.5945 10.1925ZM10.1716 8.97767L10.3903 9.30874V8.97767H10.1716ZM10.5945 8.14864H9.24412C9.17551 8.14864 9.11139 8.1142 9.07368 8.05702L8.10621 6.59267C8.06469 6.52991 8.06101 6.44946 8.09668 6.3833C8.13234 6.31728 8.2015 6.27589 8.27637 6.27589H10.5945C10.7072 6.27589 10.7987 6.36737 10.7987 6.48009V7.94444C10.7987 8.05729 10.7072 8.14864 10.5945 8.14864ZM9.35398 7.74025H10.3903V6.68428H8.65604L9.35398 7.74025ZM7.85382 8.14864H5.80125C5.68853 8.14864 5.59705 8.05716 5.59705 7.94444V6.48022C5.59705 6.36751 5.68853 6.27603 5.80125 6.27603H6.89887C6.96775 6.27603 7.03214 6.31088 7.06985 6.36873L8.02494 7.83309C8.06591 7.89584 8.06904 7.97589 8.03351 8.04178C7.99771 8.1078 7.92883 8.14864 7.85382 8.14864ZM6.00544 7.74025H7.47688L6.78819 6.68428H6.00544V7.74025ZM6.35802 5.85566H5.80125C5.68853 5.85566 5.59705 5.76418 5.59705 5.65146V4.79779C5.59705 4.7074 5.65641 4.62776 5.74299 4.60204C5.82943 4.57644 5.92295 4.61048 5.97223 4.68616L6.529 5.53984C6.56998 5.60259 6.57338 5.68277 6.53771 5.74866C6.50191 5.81441 6.43303 5.85566 6.35802 5.85566Z" fill="#271C1C"/>
</svg>
