<svg width="12" height="12" viewBox="0 0 12 12" fill="none" xmlns="http://www.w3.org/2000/svg">
<path d="M5.61729 10.3237C6.65269 10.3235 7.65826 9.97686 8.47387 9.33902L11.0382 11.9034L11.863 11.0785L9.29871 8.51419C9.93687 7.69849 10.2837 6.69269 10.284 5.65702C10.284 3.08394 8.19037 0.990356 5.61729 0.990356C3.04421 0.990356 0.950623 3.08394 0.950623 5.65702C0.950623 8.23011 3.04421 10.3237 5.61729 10.3237ZM5.61729 2.15702C7.54754 2.15702 9.11729 3.72677 9.11729 5.65702C9.11729 7.58727 7.54754 9.15702 5.61729 9.15702C3.68704 9.15702 2.11729 7.58727 2.11729 5.65702C2.11729 3.72677 3.68704 2.15702 5.61729 2.15702Z" fill="#8F92A1"/>
</svg>
