<svg width="16" height="16" viewBox="0 0 16 16" fill="none" xmlns="http://www.w3.org/2000/svg">
<rect x="0.690979" y="0.52832" width="15" height="15" rx="6" fill="#E8EFEE"/>
<path d="M11.0771 7.60645C10.869 8.01221 10.4472 8.29107 9.96056 8.29107C9.47396 8.29107 9.05232 8.01221 8.84406 7.60645H4.02753V11.9422H11.1348C10.9009 11.6642 10.7592 11.3063 10.7592 10.9154C10.7592 10.1522 11.2977 9.51311 12.0142 9.35586V7.60645H11.0771ZM8.02089 11.1436C7.26479 11.1436 6.65164 10.5304 6.65164 9.77432C6.65164 9.01822 7.26461 8.40508 8.02089 8.40508C8.77716 8.40508 9.39013 9.01805 9.39013 9.77432C9.39013 10.5306 8.77699 11.1436 8.02089 11.1436Z" fill="#0E0101" fill-opacity="0.67"/>
<path d="M12.3563 11.9414C12.9234 11.9414 13.3832 11.4816 13.3832 10.9145C13.3832 10.3474 12.9234 9.8877 12.3563 9.8877C11.7892 9.8877 11.3295 10.3474 11.3295 10.9145C11.3295 11.4816 11.7892 11.9414 12.3563 11.9414Z" fill="#0E0101" fill-opacity="0.67"/>
<path d="M9.9605 7.72056C10.3386 7.72056 10.6451 7.41405 10.6451 7.03594C10.6451 6.65783 10.3386 6.35132 9.9605 6.35132C9.58239 6.35132 9.27588 6.65783 9.27588 7.03594C9.27588 7.41405 9.58239 7.72056 9.9605 7.72056Z" fill="#0E0101" fill-opacity="0.67"/>
<path d="M5.52384 4.63989L5.09125 7.03598H8.70567C8.70567 6.34394 9.26869 5.78093 9.96072 5.78093C10.6528 5.78093 11.2158 6.34394 11.2158 7.03598H12.0144H12.5848V7.60641V9.33605C12.6528 9.34594 12.7195 9.3597 12.7845 9.3777L13.3837 6.05873L5.52384 4.63989Z" fill="#0E0101" fill-opacity="0.67"/>
</svg>
